<svg xmlns="http://www.w3.org/2000/svg" viewBox="0 0 448 512" width="40" height="40" fill="currentColor">
  <path d="M224,109.5c64,0,71.7.2,97,1.4,23.4,1.1,36,4.9,44.5,8.2a73.1,73.1,0,0,1,26.6,17.3,73.1,73.1,0,0,1,17.3,26.6c3.3,8.5,7.1,21.1,8.2,44.5,1.2,25.3,1.4,33,1.4,97s-.2,71.7-1.4,97c-1.1,23.4-4.9,36-8.2,44.5a73.1,73.1,0,0,1-17.3,26.6,73.1,73.1,0,0,1-26.6,17.3c-8.5,3.3-21.1,7.1-44.5,8.2-25.3,1.2-33,1.4-97,1.4s-71.7-.2-97-1.4c-23.4-1.1-36-4.9-44.5-8.2a73.1,73.1,0,0,1-26.6-17.3,73.1,73.1,0,0,1-17.3-26.6c-3.3-8.5-7.1-21.1-8.2-44.5-1.2-25.3-1.4-33-1.4-97s.2-71.7,1.4-97c1.1-23.4,4.9-36,8.2-44.5a73.1,73.1,0,0,1,17.3-26.6,73.1,73.1,0,0,1,26.6-17.3c8.5-3.3,21.1-7.1,44.5-8.2,25.3-1.2,33-1.4,97-1.4m0-45.4c-65.1,0-73.2.3-98.8,1.4-25.5,1.2-43,5.2-58.1,11.1A118.5,118.5,0,0,0,25,90.3,118.5,118.5,0,0,0,11.1,125.1c-5.9,15.1-9.9,32.6-11.1,58.1C-.1,208.8,0,217,0,282.1s-.3,73.2,1.4,98.8c1.2,25.5,5.2,43,11.1,58.1A118.5,118.5,0,0,0,25,458.9a118.5,118.5,0,0,0,34.8,13.9c15.1,5.9,32.6,9.9,58.1,11.1,25.6,1.2,33.7,1.4,98.8,1.4s73.2-.3,98.8-1.4c25.5-1.2,43-5.2,58.1-11.1a118.5,118.5,0,0,0,34.8-13.9,118.5,118.5,0,0,0,13.9-34.8c5.9-15.1,9.9-32.6,11.1-58.1,1.2-25.6,1.4-33.7,1.4-98.8s-.3-73.2-1.4-98.8c-1.2-25.5-5.2-43-11.1-58.1A118.5,118.5,0,0,0,423,90.3,118.5,118.5,0,0,0,388.2,76.4c-15.1-5.9-32.6-9.9-58.1-11.1C297.2,64.4,289.1,64.1,224,64.1ZM224,164a118,118,0,1,0,118,118A118,118,0,0,0,224,164Zm0,195.3A77.3,77.3,0,1,1,301.3,282,77.4,77.4,0,0,1,224,359.3ZM370.5,139a27.6,27.6,0,1,1-27.6-27.6A27.6,27.6,0,0,1,370.5,139Z"></path>
</svg>
